<svg id="hotel-barriere" xmlns="http://www.w3.org/2000/svg" viewBox="0 0 147 43" width="147" height="43"><path d="M8.268,29.37H8.125A7.471,7.471,0,0,1,.577,37.1v.15A7.337,7.337,0,0,1,8.12,44.819h.143a7.341,7.341,0,0,1,7.548-7.572V37.1a7.467,7.467,0,0,1-7.543-7.727" transform="translate(-0.577 -1.858)" style="fill:#a57b1b"/><path d="M17.47,17.946H12.992V2.546H16.3a13.509,13.509,0,0,1,2.554.25A8.583,8.583,0,0,1,21.406,3.8c1.954,1.128,3.135,3.562,3.135,6.416a7.817,7.817,0,0,1-2.264,5.911A4.917,4.917,0,0,1,19.95,17.6,8.447,8.447,0,0,1,17.47,17.946Zm12.119,5.527a8.787,8.787,0,0,0-2.411-2.739,11.735,11.735,0,0,0-3.311-1.726,14.843,14.843,0,0,0-3.578-.763v-.1a12.071,12.071,0,0,0,3.263-.838,10.013,10.013,0,0,0,2.75-1.676,7.96,7.96,0,0,0,1.9-2.419A6.574,6.574,0,0,0,28.91,10.2a8.374,8.374,0,0,0-.487-2.639,6.713,6.713,0,0,0-1.8-2.714,10.479,10.479,0,0,0-3.6-2.12,16.546,16.546,0,0,0-5.841-.873c-.452,0-9.054.025-9.054.025V24.73h.143a6.154,6.154,0,0,1,1.25-3.811,6.635,6.635,0,0,1,4.837-2.28h3.991s3.09.085,4.846,1.806c3.415,3.362,2.692,9.269,1.821,11.534S22.582,37.1,18.621,37.1v.15a15.146,15.146,0,0,0,4.232-.524,11.969,11.969,0,0,0,4.355-2.245A8.585,8.585,0,0,0,29.693,31.3a9.857,9.857,0,0,0,.826-4.07,7.5,7.5,0,0,0-.925-3.752" transform="translate(-0.577 -1.858)" style="fill:#a57b1b"/><path d="M45.794,12.976h5.189c2.957,0,4.477,1.456,4.477,3.868a3.674,3.674,0,0,1-1.086,2.692,3.127,3.127,0,0,1,2.366,3.086c0,2.172-1.325,3.91-4.69,3.91H45.794Zm2.258,2.195v3.562h4.259a2.2,2.2,0,0,0,.868-1.782c0-1.586-1.217-1.78-2.346-1.78Zm0,5.713v3.453h3.756c1.936,0,2.651-.672,2.651-1.715,0-1.348-1.064-1.738-2.866-1.738Z" transform="translate(-0.577 -1.858)" style="fill:#fff"/><path d="M68.015,24.055H61.368L60.2,26.532H57.654L64.605,12.65h.261l6.952,13.882H69.19Zm-3.322-7.081-2.346,5H67.04Z" transform="translate(-0.577 -1.858)" style="fill:#fff"/><path d="M79.856,22.144H76.618v4.388H74.36V12.976h4.951c3.606,0,5.323,1.825,5.323,4.584a4.456,4.456,0,0,1-2.412,4.192l4,4.78H83.374Zm-3.238-6.973v4.778h4.236a2.662,2.662,0,0,0,1.433-2.389c0-1.717-.976-2.389-3-2.389Z" transform="translate(-0.577 -1.858)" style="fill:#fff"/><path d="M94.261,22.144H91.024v4.388H88.765V12.976h4.951c3.607,0,5.323,1.825,5.323,4.584a4.456,4.456,0,0,1-2.412,4.192l4,4.78H97.779Zm-3.237-6.973v4.778H95.26a2.662,2.662,0,0,0,1.433-2.389c0-1.717-.976-2.389-3-2.389Z" transform="translate(-0.577 -1.858)" style="fill:#fff"/><path d="M103.168,12.976h2.258V26.532h-2.258Z" transform="translate(-0.577 -1.858)" style="fill:#fff"/><polygon points="118.948 13.313 118.948 11.119 115.4 11.119 114.723 9.355 112.53 9.355 113.403 11.119 109.131 11.119 109.131 24.674 118.948 24.674 118.948 22.479 111.39 22.479 111.39 18.852 118.733 18.852 118.733 16.659 111.39 16.659 111.39 13.313 118.948 13.313" style="fill:#fff"/><path d="M128.868,22.144h-3.237v4.388h-2.258V12.976h4.95c3.607,0,5.323,1.825,5.323,4.584a4.456,4.456,0,0,1-2.411,4.192l4,4.78h-2.845Zm-3.237-6.973v4.778h4.236A2.662,2.662,0,0,0,131.3,17.56c0-1.717-.976-2.389-3-2.389Z" transform="translate(-0.577 -1.858)" style="fill:#fff"/><path d="M147.592,24.337v2.2h-9.817V12.976h9.817v2.195h-7.559v3.345h7.343V20.71h-7.343v3.627Z" transform="translate(-0.577 -1.858)" style="fill:#fff"/><path d="M49.5,2.929a2.308,2.308,0,0,0-2.546,2.4,2.3,2.3,0,0,0,2.535,2.4,3.262,3.262,0,0,0,2.238-.88l.212,1.124a3.938,3.938,0,0,1-2.535.827,3.368,3.368,0,0,1-3.605-3.468A3.368,3.368,0,0,1,49.4,1.858a3.938,3.938,0,0,1,2.535.827l-.212,1.124A3.255,3.255,0,0,0,49.5,2.929Z" transform="translate(-0.577 -1.858)" style="fill:#fff"/><path d="M57.844,7.426H54.6l-.573,1.209H52.784l3.394-6.777h.128L59.7,8.635H58.416ZM56.22,3.968l-1.144,2.44h2.29Z" transform="translate(-0.577 -1.858)" style="fill:#fff"/><path d="M65.79,6.843c0,1.082-.955,1.951-2.62,1.951a2.851,2.851,0,0,1-2.831-1.7l.8-.838A1.96,1.96,0,0,0,63.17,7.808c1.156,0,1.538-.467,1.538-.965,0-1.432-3.648-.976-3.648-3.214a1.875,1.875,0,0,1,2.11-1.771,2.113,2.113,0,0,1,1.994,1.167l-.668.848A1.332,1.332,0,0,0,63.17,2.844c-.689,0-1,.35-1,.785C62.173,4.965,65.79,4.509,65.79,6.843Z" transform="translate(-0.577 -1.858)" style="fill:#fff"/><path d="M67.17,2.017h1.1V8.635h-1.1Z" transform="translate(-0.577 -1.858)" style="fill:#fff"/><path d="M76.652,8.741,71.5,4.2V8.635H70.4V1.911h.127L75.676,6.44V2.017h1.1V8.741Z" transform="translate(-0.577 -1.858)" style="fill:#fff"/><path d="M78.48,5.326a3.543,3.543,0,0,1,7.084,0,3.543,3.543,0,0,1-7.084,0Zm1.145,0a2.4,2.4,0,1,0,4.794,0,2.4,2.4,0,1,0-4.794,0Z" transform="translate(-0.577 -1.858)" style="fill:#fff"/><path d="M48.9,32.178a2.038,2.038,0,1,0-.009,4.069,2.769,2.769,0,0,0,1.9-.747l.18.954a3.342,3.342,0,0,1-2.151.7,2.946,2.946,0,1,1,0-5.887,3.342,3.342,0,0,1,2.151.7l-.18.954A2.764,2.764,0,0,0,48.9,32.178Z" transform="translate(-0.577 -1.858)" style="fill:#fff"/><path d="M51.964,34.213a3.007,3.007,0,1,1,3.006,2.943A2.8,2.8,0,0,1,51.964,34.213Zm.972,0a2.035,2.035,0,1,0,2.034-2.062A1.925,1.925,0,0,0,52.936,34.213Z" transform="translate(-0.577 -1.858)" style="fill:#fff"/><path d="M63.818,36.535a3.1,3.1,0,0,1-1.954.621,2.169,2.169,0,0,1-2.493-2.4V31.4h.936v3.232c0,1.089.477,1.611,1.6,1.611a2.531,2.531,0,0,0,1.765-.657V31.4h.936v5.618h-.846Z" transform="translate(-0.577 -1.858)" style="fill:#fff"/><path d="M68.686,35.2H67.345v1.819h-.936V31.4h2.053c1.494,0,2.2.756,2.2,1.9a1.847,1.847,0,0,1-1,1.737l1.656,1.981H70.145Zm-1.341-2.889v1.98H69.1a1.1,1.1,0,0,0,.595-.99c0-.712-.4-.99-1.242-.99Z" transform="translate(-0.577 -1.858)" style="fill:#fff"/><path d="M74.679,35.2h-1.34v1.819H72.4V31.4h2.053c1.494,0,2.2.756,2.2,1.9a1.847,1.847,0,0,1-1,1.737l1.656,1.981H76.138Zm-1.34-2.889v1.98h1.754a1.1,1.1,0,0,0,.595-.99c0-.712-.405-.99-1.242-.99Z" transform="translate(-0.577 -1.858)" style="fill:#fff"/><path d="M82.466,36.112v.91H78.4V31.4h4.07v.91H79.333V33.7h3.043v.909H79.333v1.5Z" transform="translate(-0.577 -1.858)" style="fill:#fff"/><path d="M89.4,37.111l-4.375-3.852v3.763h-.936V31.314h.108l4.375,3.844V31.4h.937v5.707Z" transform="translate(-0.577 -1.858)" style="fill:#fff"/><path d="M91.3,31.4h2.161c2.34,0,3.187,1.215,3.187,2.809s-.847,2.809-3.187,2.809H91.3Zm1.891,4.708c1.594,0,2.476-.45,2.476-1.9s-.882-1.891-2.476-1.9h-.954v3.8Z" transform="translate(-0.577 -1.858)" style="fill:#fff"/><path d="M101.976,36.112v.91H98.088V31.4h.936v4.708Z" transform="translate(-0.577 -1.858)" style="fill:#fff"/><path d="M103.326,31.4h.936v5.618h-.936Z" transform="translate(-0.577 -1.858)" style="fill:#fff"/><path d="M111.374,37.111,107,33.259v3.763h-.937V31.314h.108l4.376,3.844V31.4h.936v5.707Z" transform="translate(-0.577 -1.858)" style="fill:#fff"/></svg>